<?xml version="1.0" encoding="UTF-8"?>
<svg version="1.1" xmlns="http://www.w3.org/2000/svg" width="96" height="96">
<path d="M0 0 C1.13858963 -0.00524185 2.27717926 -0.0104837 3.45027161 -0.0158844 C5.84989609 -0.022293 8.24955204 -0.02098272 10.64916992 -0.01245117 C14.32982726 -0.00391136 18.00894781 -0.0327691 21.68945312 -0.06445312 C24.02213495 -0.06606445 26.35481953 -0.06548893 28.6875 -0.0625 C29.79063034 -0.07373398 30.89376068 -0.08496796 32.03031921 -0.09654236 C33.56254875 -0.08247093 33.56254875 -0.08247093 35.12573242 -0.06811523 C36.47425545 -0.06786598 36.47425545 -0.06786598 37.85002136 -0.06761169 C40.14453125 0.43359375 40.14453125 0.43359375 41.8874054 2.27867126 C43.45803042 4.97098338 44.34886372 7.64523531 45.26953125 10.62109375 C46.1831614 14.31820731 46.1831614 14.31820731 48.14453125 17.43359375 C48.56605469 16.29019531 48.98757812 15.14679687 49.421875 13.96875 C49.97511646 12.47781116 50.52850972 10.98692864 51.08203125 9.49609375 C51.35982422 8.74134766 51.63761719 7.98660156 51.92382812 7.20898438 C54.03125 1.546875 54.03125 1.546875 55.14453125 0.43359375 C56.63324985 0.34689943 58.12597625 0.32655881 59.6171875 0.3359375 C60.51630859 0.33916016 61.41542969 0.34238281 62.34179688 0.34570312 C63.76008789 0.35827148 63.76008789 0.35827148 65.20703125 0.37109375 C66.63112305 0.37786133 66.63112305 0.37786133 68.08398438 0.38476562 C70.4375619 0.39659265 72.79101602 0.4130735 75.14453125 0.43359375 C75.26953125 2.80859375 75.26953125 2.80859375 75.14453125 5.43359375 C74.48453125 6.09359375 73.82453125 6.75359375 73.14453125 7.43359375 C72.83860809 9.64229853 72.83860809 9.64229853 72.88574219 12.21875 C72.87628571 13.71039673 72.87628571 13.71039673 72.86663818 15.23217773 C72.87068665 16.30927002 72.87473511 17.3863623 72.87890625 18.49609375 C72.8769928 19.59832275 72.87507935 20.70055176 72.87310791 21.83618164 C72.87174513 24.16976143 72.87544803 26.50334878 72.88378906 28.83691406 C72.89448704 32.41879222 72.88389667 36.00016878 72.87109375 39.58203125 C72.87241533 41.8450532 72.87497768 44.10807483 72.87890625 46.37109375 C72.87485779 47.44818604 72.87080933 48.52527832 72.86663818 49.63500977 C72.8729425 50.62944092 72.87924683 51.62387207 72.88574219 52.6484375 C72.88733337 53.5262085 72.88892456 54.40397949 72.89056396 55.30834961 C72.94822183 57.64942357 72.94822183 57.64942357 75.14453125 59.43359375 C75.14453125 61.08359375 75.14453125 62.73359375 75.14453125 64.43359375 C68.54453125 64.43359375 61.94453125 64.43359375 55.14453125 64.43359375 C55.14453125 59.43359375 55.14453125 59.43359375 57.14453125 57.43359375 C58.0406776 54.7173818 58.26730196 52.24697236 58.25805664 49.39941406 C58.25798111 48.61890686 58.25790558 47.83839966 58.25782776 47.03424072 C58.25266647 46.20180847 58.24750519 45.36937622 58.2421875 44.51171875 C58.24077255 43.65173279 58.2393576 42.79174683 58.23789978 41.90570068 C58.23231222 39.16496266 58.219762 36.42430699 58.20703125 33.68359375 C58.20201464 31.82291785 58.19745202 29.96224066 58.19335938 28.1015625 C58.1831987 23.54551583 58.16362086 18.98964674 58.14453125 14.43359375 C54.18453125 25.65359375 50.22453125 36.87359375 46.14453125 48.43359375 C44.16453125 48.43359375 42.18453125 48.43359375 40.14453125 48.43359375 C38.75758578 45.45553317 37.43527298 42.45457709 36.14453125 39.43359375 C35.83644531 38.72589844 35.52835938 38.01820312 35.2109375 37.2890625 C32.66744186 30.72952111 32.85409063 24.39341164 33.14453125 17.43359375 C32.48453125 17.43359375 31.82453125 17.43359375 31.14453125 17.43359375 C31.23830065 22.46931563 31.34444634 27.50457 31.46191406 32.53979492 C31.5001241 34.25163689 31.53499077 35.96355697 31.56640625 37.67553711 C31.61223063 40.14074558 31.67019538 42.60542008 31.73046875 45.0703125 C31.74201996 45.83196213 31.75357117 46.59361176 31.76547241 47.37834167 C31.91065331 53.93923744 31.91065331 53.93923744 35.14453125 59.43359375 C35.14453125 61.08359375 35.14453125 62.73359375 35.14453125 64.43359375 C28.54453125 64.43359375 21.94453125 64.43359375 15.14453125 64.43359375 C14.81453125 63.77359375 14.48453125 63.11359375 14.14453125 62.43359375 C13.34934082 62.92255127 13.34934082 62.92255127 12.53808594 63.42138672 C9.50197292 64.70532435 7.14048941 64.65997071 3.84765625 64.62890625 C2.03974609 64.61923828 2.03974609 64.61923828 0.1953125 64.609375 C-1.68607422 64.58423828 -1.68607422 64.58423828 -3.60546875 64.55859375 C-4.87519531 64.54957031 -6.14492187 64.54054688 -7.453125 64.53125 C-10.58742968 64.5076838 -13.72135416 64.47478207 -16.85546875 64.43359375 C-17.52508771 63.02207171 -18.18458634 61.60574601 -18.83984375 60.1875 C-19.20819336 59.39931885 -19.57654297 58.6111377 -19.95605469 57.79907227 C-21.21924125 54.47686417 -21.15454192 51.94770346 -20.85546875 48.43359375 C-17.66796875 48.12109375 -17.66796875 48.12109375 -13.85546875 48.43359375 C-11.16796875 50.68359375 -11.16796875 50.68359375 -8.85546875 53.43359375 C-5.24329 57.1489776 -3.38778568 58.48036206 1.76953125 58.99609375 C2.58679688 59.07988281 3.4040625 59.16367188 4.24609375 59.25 C5.18582031 59.34087891 5.18582031 59.34087891 6.14453125 59.43359375 C4.05105501 54.74060231 1.56566153 51.44881952 -1.98046875 47.74609375 C-2.96556526 46.69590493 -3.94860235 45.64378096 -4.9296875 44.58984375 C-5.42001465 44.06390625 -5.9103418 43.53796875 -6.41552734 42.99609375 C-15.75408589 32.86269688 -21.30600281 25.47579593 -21.2890625 11.44921875 C-20.78856045 7.96824952 -20.05937019 6.17332746 -17.85546875 3.43359375 C-12.22190333 -0.40147068 -6.56062022 -0.01755569 0 0 Z M16.14453125 1.43359375 C17.14453125 3.43359375 17.14453125 3.43359375 17.14453125 3.43359375 Z M17.14453125 3.43359375 C18.14453125 6.43359375 18.14453125 6.43359375 18.14453125 6.43359375 Z M-3.85546875 5.43359375 C-5.17032944 8.29150866 -5.17032944 8.29150866 -4.02734375 10.45703125 C-0.45436249 16.36619257 3.62898656 21.4795841 8.16040039 26.65649414 C11.84559862 30.92205859 14.74851901 35.31062836 17.14453125 40.43359375 C17.47453125 40.43359375 17.80453125 40.43359375 18.14453125 40.43359375 C18.47453125 32.51359375 18.80453125 24.59359375 19.14453125 16.43359375 C16.17453125 16.10359375 13.20453125 15.77359375 10.14453125 15.43359375 C9.48453125 14.11359375 8.82453125 12.79359375 8.14453125 11.43359375 C6.05781894 8.09620393 6.05781894 8.09620393 3.14453125 5.43359375 C-0.5662038 4.93163081 -0.5662038 4.93163081 -3.85546875 5.43359375 Z M18.14453125 7.43359375 C19.14453125 9.43359375 19.14453125 9.43359375 19.14453125 9.43359375 Z M-17.85546875 9.43359375 C-17.85546875 13.06359375 -17.85546875 16.69359375 -17.85546875 20.43359375 C-17.52546875 20.43359375 -17.19546875 20.43359375 -16.85546875 20.43359375 C-16.85546875 16.80359375 -16.85546875 13.17359375 -16.85546875 9.43359375 C-17.18546875 9.43359375 -17.51546875 9.43359375 -17.85546875 9.43359375 Z M19.14453125 10.43359375 C19.14453125 12.41359375 19.14453125 14.39359375 19.14453125 16.43359375 C19.47453125 16.43359375 19.80453125 16.43359375 20.14453125 16.43359375 C20.14453125 14.45359375 20.14453125 12.47359375 20.14453125 10.43359375 C19.81453125 10.43359375 19.48453125 10.43359375 19.14453125 10.43359375 Z M62.14453125 10.43359375 C60.51433405 13.69398815 60.98145704 17.28819935 60.9765625 20.87109375 C60.9732341 21.70697021 60.9699057 22.54284668 60.96647644 23.40405273 C60.96141018 25.1726832 60.95906802 26.94132323 60.95922852 28.70996094 C60.95704005 31.4226851 60.93887598 34.13500398 60.91992188 36.84765625 C60.91698835 38.56380069 60.91500328 40.27994706 60.9140625 41.99609375 C60.90687698 42.81070068 60.89969147 43.62530762 60.89228821 44.46459961 C60.72228663 48.920592 60.72228663 48.920592 63.14453125 52.43359375 C63.14453125 38.57359375 63.14453125 24.71359375 63.14453125 10.43359375 C62.81453125 10.43359375 62.48453125 10.43359375 62.14453125 10.43359375 Z M22.14453125 18.43359375 C20.31781928 22.08701769 20.95982403 26.41198534 20.95703125 30.43359375 C20.94478516 31.36171875 20.93253906 32.28984375 20.91992188 33.24609375 C20.91798828 34.13296875 20.91605469 35.01984375 20.9140625 35.93359375 C20.90995361 36.74828125 20.90584473 37.56296875 20.90161133 38.40234375 C20.95941739 40.66057209 20.95941739 40.66057209 23.14453125 42.43359375 C23.14453125 34.51359375 23.14453125 26.59359375 23.14453125 18.43359375 C22.81453125 18.43359375 22.48453125 18.43359375 22.14453125 18.43359375 Z M-16.85546875 21.43359375 C-15.85546875 23.43359375 -15.85546875 23.43359375 -15.85546875 23.43359375 Z M-15.85546875 23.43359375 C-14.85546875 25.43359375 -14.85546875 25.43359375 -14.85546875 25.43359375 Z M18.14453125 40.43359375 C19.14453125 43.43359375 19.14453125 43.43359375 19.14453125 43.43359375 Z M19.14453125 44.43359375 C19.14453125 48.39359375 19.14453125 52.35359375 19.14453125 56.43359375 C19.47453125 56.43359375 19.80453125 56.43359375 20.14453125 56.43359375 C20.14453125 52.47359375 20.14453125 48.51359375 20.14453125 44.43359375 C19.81453125 44.43359375 19.48453125 44.43359375 19.14453125 44.43359375 Z M9.14453125 55.43359375 C9.14453125 57.08359375 9.14453125 58.73359375 9.14453125 60.43359375 C9.47453125 60.43359375 9.80453125 60.43359375 10.14453125 60.43359375 C10.14453125 58.78359375 10.14453125 57.13359375 10.14453125 55.43359375 C9.81453125 55.43359375 9.48453125 55.43359375 9.14453125 55.43359375 Z M18.14453125 56.43359375 C19.14453125 58.43359375 19.14453125 58.43359375 19.14453125 58.43359375 Z " fill="#FFFFFF" transform="translate(20.85546875,13.56640625)"/>
<path d="M0 0 C27.72 0 55.44 0 84 0 C84 0.66 84 1.32 84 2 C56.28 2 28.56 2 0 2 C0 1.34 0 0.68 0 0 Z " fill="#FFFFFF" transform="translate(6,94)"/>
</svg>
